<mxfile host="Electron" modified="2023-08-24T02:33:03.351Z" agent="Mozilla/5.0 (Windows NT 10.0; Win64; x64) AppleWebKit/537.36 (KHTML, like Gecko) draw.io/21.6.8 Chrome/114.0.5735.289 Electron/25.5.0 Safari/537.36" etag="oyNGczA6iWFzNDyNDZYQ" version="21.6.8" type="device">
  <diagram name="第 1 页" id="kfSMxD-ZnBXREKo955Rc">
    <mxGraphModel dx="3072" dy="828" grid="1" gridSize="10" guides="1" tooltips="1" connect="1" arrows="1" fold="1" page="1" pageScale="1" pageWidth="827" pageHeight="1169" math="0" shadow="0">
      <root>
        <mxCell id="0" />
        <mxCell id="1" parent="0" />
        <mxCell id="-a8pm589WH-SlMhMmDhZ-1" value="数据开发" style="rounded=0;whiteSpace=wrap;html=1;fontSize=14;verticalAlign=middle;labelPosition=center;verticalLabelPosition=middle;align=left;horizontal=1;spacingTop=0;spacingLeft=10;" parent="1" vertex="1">
          <mxGeometry x="-1527" y="569" width="680" height="80" as="geometry" />
        </mxCell>
        <mxCell id="X74YcVB7wnx7yH2umN-W-35" value="规范设计" style="rounded=0;whiteSpace=wrap;html=1;fontSize=14;verticalAlign=middle;labelPosition=center;verticalLabelPosition=middle;align=left;horizontal=1;spacingTop=0;spacingLeft=10;" parent="1" vertex="1">
          <mxGeometry x="-1527" y="659" width="680" height="80" as="geometry" />
        </mxCell>
        <mxCell id="X74YcVB7wnx7yH2umN-W-34" value="数据集成" style="rounded=0;whiteSpace=wrap;html=1;fontSize=14;verticalAlign=middle;labelPosition=center;verticalLabelPosition=middle;align=left;horizontal=1;spacingTop=0;spacingLeft=10;" parent="1" vertex="1">
          <mxGeometry x="-1527" y="749" width="680" height="80" as="geometry" />
        </mxCell>
        <mxCell id="X74YcVB7wnx7yH2umN-W-32" value="计算存储引擎" style="rounded=0;whiteSpace=wrap;html=1;fontSize=14;verticalAlign=middle;labelPosition=center;verticalLabelPosition=middle;align=left;horizontal=1;spacingTop=0;spacingLeft=10;" parent="1" vertex="1">
          <mxGeometry x="-1527" y="839" width="680" height="80" as="geometry" />
        </mxCell>
        <mxCell id="X74YcVB7wnx7yH2umN-W-2" value="阿里自研大数据计算服务（MaxCompute）" style="rounded=0;whiteSpace=wrap;html=1;fillColor=#d5e8d4;strokeColor=#82b366;" parent="1" vertex="1">
          <mxGeometry x="-1407" y="859" width="240" height="40" as="geometry" />
        </mxCell>
        <mxCell id="X74YcVB7wnx7yH2umN-W-3" value="交互式分析引擎（Hologers）" style="rounded=0;whiteSpace=wrap;html=1;container=0;fontSize=12;fillColor=#eeeeee;strokeColor=#36393d;" parent="1" vertex="1">
          <mxGeometry x="-1139" y="859" width="240" height="40" as="geometry" />
        </mxCell>
        <mxCell id="X74YcVB7wnx7yH2umN-W-5" value="全量同步" style="rounded=0;whiteSpace=wrap;html=1;fillColor=#d5e8d4;strokeColor=#82b366;" parent="1" vertex="1">
          <mxGeometry x="-1447" y="769" width="100" height="40" as="geometry" />
        </mxCell>
        <mxCell id="X74YcVB7wnx7yH2umN-W-6" value="增量同步" style="rounded=0;whiteSpace=wrap;html=1;fillColor=#d5e8d4;strokeColor=#82b366;" parent="1" vertex="1">
          <mxGeometry x="-1327" y="769" width="100" height="40" as="geometry" />
        </mxCell>
        <mxCell id="X74YcVB7wnx7yH2umN-W-7" value="实时同步" style="rounded=0;whiteSpace=wrap;html=1;fillColor=#eeeeee;strokeColor=#36393d;" parent="1" vertex="1">
          <mxGeometry x="-1207" y="769" width="100" height="40" as="geometry" />
        </mxCell>
        <mxCell id="X74YcVB7wnx7yH2umN-W-8" value="API采集" style="rounded=0;whiteSpace=wrap;html=1;fillColor=#eeeeee;strokeColor=#36393d;" parent="1" vertex="1">
          <mxGeometry x="-1087" y="769" width="100" height="40" as="geometry" />
        </mxCell>
        <mxCell id="X74YcVB7wnx7yH2umN-W-9" value="数据转换" style="rounded=0;whiteSpace=wrap;html=1;fillColor=#eeeeee;strokeColor=#36393d;" parent="1" vertex="1">
          <mxGeometry x="-967" y="769" width="100" height="40" as="geometry" />
        </mxCell>
        <mxCell id="X74YcVB7wnx7yH2umN-W-11" value="数仓分层" style="rounded=0;whiteSpace=wrap;html=1;fillColor=#d5e8d4;strokeColor=#82b366;" parent="1" vertex="1">
          <mxGeometry x="-1447" y="679" width="140" height="40" as="geometry" />
        </mxCell>
        <mxCell id="X74YcVB7wnx7yH2umN-W-12" value="数据标准" style="rounded=0;whiteSpace=wrap;html=1;fillColor=#d5e8d4;strokeColor=#82b366;" parent="1" vertex="1">
          <mxGeometry x="-997" y="679" width="140" height="40" as="geometry" />
        </mxCell>
        <mxCell id="X74YcVB7wnx7yH2umN-W-13" value="数据指标" style="rounded=0;whiteSpace=wrap;html=1;fillColor=#d5e8d4;strokeColor=#82b366;" parent="1" vertex="1">
          <mxGeometry x="-1147" y="679" width="140" height="40" as="geometry" />
        </mxCell>
        <mxCell id="X74YcVB7wnx7yH2umN-W-14" value="数据建模" style="rounded=0;whiteSpace=wrap;html=1;fillColor=#d5e8d4;strokeColor=#82b366;" parent="1" vertex="1">
          <mxGeometry x="-1297" y="679" width="140" height="40" as="geometry" />
        </mxCell>
        <mxCell id="X74YcVB7wnx7yH2umN-W-16" value="离线集成开发环境" style="rounded=0;whiteSpace=wrap;html=1;fillColor=#d5e8d4;strokeColor=#82b366;" parent="1" vertex="1">
          <mxGeometry x="-1447" y="589" width="140" height="40" as="geometry" />
        </mxCell>
        <mxCell id="X74YcVB7wnx7yH2umN-W-17" value="任务运维和监控" style="rounded=0;whiteSpace=wrap;html=1;fillColor=#d5e8d4;strokeColor=#82b366;" parent="1" vertex="1">
          <mxGeometry x="-997" y="589" width="140" height="40" as="geometry" />
        </mxCell>
        <mxCell id="X74YcVB7wnx7yH2umN-W-31" value="任务统一调度" style="rounded=0;whiteSpace=wrap;html=1;fillColor=#d5e8d4;strokeColor=#82b366;" parent="1" vertex="1">
          <mxGeometry x="-1147" y="589" width="140" height="40" as="geometry" />
        </mxCell>
        <mxCell id="X74YcVB7wnx7yH2umN-W-36" value="数据治理" style="rounded=0;whiteSpace=wrap;html=1;fontSize=16;verticalAlign=top;labelPosition=center;verticalLabelPosition=middle;align=center;horizontal=1;spacingTop=0;spacingLeft=0;" parent="1" vertex="1">
          <mxGeometry x="-1527" y="239" width="680" height="320" as="geometry" />
        </mxCell>
        <mxCell id="X74YcVB7wnx7yH2umN-W-37" value="交互式分析集成开发环境" style="rounded=0;whiteSpace=wrap;html=1;fillColor=#eeeeee;strokeColor=#36393d;" parent="1" vertex="1">
          <mxGeometry x="-1297" y="589" width="140" height="40" as="geometry" />
        </mxCell>
        <mxCell id="X74YcVB7wnx7yH2umN-W-41" value="&lt;font style=&quot;font-size: 14px;&quot;&gt;数据质量&lt;/font&gt;" style="rounded=0;whiteSpace=wrap;html=1;align=left;spacingLeft=10;" parent="1" vertex="1">
          <mxGeometry x="-1517" y="279" width="660" height="60" as="geometry" />
        </mxCell>
        <mxCell id="X74YcVB7wnx7yH2umN-W-40" value="动态规则阈值" style="rounded=0;whiteSpace=wrap;html=1;fillColor=#eeeeee;strokeColor=#36393d;" parent="1" vertex="1">
          <mxGeometry x="-1272" y="289" width="120" height="40" as="geometry" />
        </mxCell>
        <mxCell id="X74YcVB7wnx7yH2umN-W-39" value="质量规则监控" style="rounded=0;whiteSpace=wrap;html=1;fillColor=#d5e8d4;strokeColor=#82b366;" parent="1" vertex="1">
          <mxGeometry x="-1407" y="289" width="120" height="40" as="geometry" />
        </mxCell>
        <mxCell id="X74YcVB7wnx7yH2umN-W-43" value="数据安全" style="rounded=0;whiteSpace=wrap;html=1;align=left;spacingLeft=10;fontSize=14;" parent="1" vertex="1">
          <mxGeometry x="-1517" y="419" width="660" height="60" as="geometry" />
        </mxCell>
        <mxCell id="X74YcVB7wnx7yH2umN-W-44" value="数据资产地图" style="rounded=0;whiteSpace=wrap;html=1;align=left;spacingLeft=10;fontSize=14;" parent="1" vertex="1">
          <mxGeometry x="-1517" y="349" width="660" height="60" as="geometry" />
        </mxCell>
        <mxCell id="X74YcVB7wnx7yH2umN-W-45" value="数据治理中心" style="rounded=0;whiteSpace=wrap;html=1;align=left;spacingLeft=10;fontSize=14;" parent="1" vertex="1">
          <mxGeometry x="-1517" y="489" width="660" height="60" as="geometry" />
        </mxCell>
        <mxCell id="X74YcVB7wnx7yH2umN-W-47" value="离线表、消息通道" style="rounded=0;whiteSpace=wrap;html=1;fillColor=#eeeeee;strokeColor=#36393d;" parent="1" vertex="1">
          <mxGeometry x="-1137" y="289" width="120" height="40" as="geometry" />
        </mxCell>
        <mxCell id="X74YcVB7wnx7yH2umN-W-48" value="元数据采集" style="rounded=0;whiteSpace=wrap;html=1;fillColor=#d5e8d4;strokeColor=#82b366;" parent="1" vertex="1">
          <mxGeometry x="-1407" y="359" width="120" height="40" as="geometry" />
        </mxCell>
        <mxCell id="X74YcVB7wnx7yH2umN-W-49" value="全链路数据血缘" style="rounded=0;whiteSpace=wrap;html=1;fillColor=#eeeeee;strokeColor=#36393d;" parent="1" vertex="1">
          <mxGeometry x="-1137" y="359" width="120" height="40" as="geometry" />
        </mxCell>
        <mxCell id="X74YcVB7wnx7yH2umN-W-50" value="数据目录和检索" style="rounded=0;whiteSpace=wrap;html=1;fillColor=#d5e8d4;strokeColor=#82b366;" parent="1" vertex="1">
          <mxGeometry x="-1272" y="359" width="120" height="40" as="geometry" />
        </mxCell>
        <mxCell id="X74YcVB7wnx7yH2umN-W-51" value="影响分析" style="rounded=0;whiteSpace=wrap;html=1;fillColor=#eeeeee;strokeColor=#36393d;" parent="1" vertex="1">
          <mxGeometry x="-1002" y="359" width="120" height="40" as="geometry" />
        </mxCell>
        <mxCell id="X74YcVB7wnx7yH2umN-W-52" value="数据分级分类" style="rounded=0;whiteSpace=wrap;html=1;fillColor=#d5e8d4;strokeColor=#82b366;" parent="1" vertex="1">
          <mxGeometry x="-1272" y="429" width="120" height="40" as="geometry" />
        </mxCell>
        <mxCell id="X74YcVB7wnx7yH2umN-W-53" value="数据权限管理" style="rounded=0;whiteSpace=wrap;html=1;fillColor=#d5e8d4;strokeColor=#82b366;" parent="1" vertex="1">
          <mxGeometry x="-1407" y="429" width="120" height="40" as="geometry" />
        </mxCell>
        <mxCell id="X74YcVB7wnx7yH2umN-W-54" value="风险预警" style="rounded=0;whiteSpace=wrap;html=1;fillColor=#eeeeee;strokeColor=#36393d;" parent="1" vertex="1">
          <mxGeometry x="-1137" y="429" width="120" height="40" as="geometry" />
        </mxCell>
        <mxCell id="X74YcVB7wnx7yH2umN-W-55" value="检查器（事前预防）" style="rounded=0;whiteSpace=wrap;html=1;fillColor=#eeeeee;strokeColor=#36393d;" parent="1" vertex="1">
          <mxGeometry x="-1407" y="499" width="120" height="40" as="geometry" />
        </mxCell>
        <mxCell id="X74YcVB7wnx7yH2umN-W-56" value="治理项（事后发现）" style="rounded=0;whiteSpace=wrap;html=1;fillColor=#eeeeee;strokeColor=#36393d;" parent="1" vertex="1">
          <mxGeometry x="-1272" y="499" width="120" height="40" as="geometry" />
        </mxCell>
        <mxCell id="X74YcVB7wnx7yH2umN-W-57" value="问题处理方案" style="rounded=0;whiteSpace=wrap;html=1;fillColor=#eeeeee;strokeColor=#36393d;" parent="1" vertex="1">
          <mxGeometry x="-1137" y="499" width="120" height="40" as="geometry" />
        </mxCell>
        <mxCell id="X74YcVB7wnx7yH2umN-W-58" value="健康分评估模型" style="rounded=0;whiteSpace=wrap;html=1;fillColor=#d5e8d4;strokeColor=#82b366;" parent="1" vertex="1">
          <mxGeometry x="-1002" y="499" width="120" height="40" as="geometry" />
        </mxCell>
        <mxCell id="X74YcVB7wnx7yH2umN-W-59" value="BI工具" style="rounded=0;whiteSpace=wrap;html=1;fontSize=14;verticalAlign=middle;labelPosition=center;verticalLabelPosition=middle;align=left;horizontal=1;spacingTop=0;spacingLeft=10;" parent="1" vertex="1">
          <mxGeometry x="-1527" y="119" width="680" height="110" as="geometry" />
        </mxCell>
        <mxCell id="X74YcVB7wnx7yH2umN-W-60" value="数据源连接和整合" style="rounded=0;whiteSpace=wrap;html=1;fillColor=#d5e8d4;strokeColor=#82b366;" parent="1" vertex="1">
          <mxGeometry x="-1447" y="129" width="180" height="40" as="geometry" />
        </mxCell>
        <mxCell id="X74YcVB7wnx7yH2umN-W-61" value="数据源绑定和刷新" style="rounded=0;whiteSpace=wrap;html=1;fillColor=#d5e8d4;strokeColor=#82b366;" parent="1" vertex="1">
          <mxGeometry x="-1247" y="129" width="180" height="40" as="geometry" />
        </mxCell>
        <mxCell id="X74YcVB7wnx7yH2umN-W-62" value="指标筛选过滤和分析" style="rounded=0;whiteSpace=wrap;html=1;fillColor=#d5e8d4;strokeColor=#82b366;" parent="1" vertex="1">
          <mxGeometry x="-1047" y="129" width="180" height="40" as="geometry" />
        </mxCell>
        <mxCell id="X74YcVB7wnx7yH2umN-W-63" value="可视化图表/仪表盘组件" style="rounded=0;whiteSpace=wrap;html=1;fillColor=#d5e8d4;strokeColor=#82b366;" parent="1" vertex="1">
          <mxGeometry x="-1447" y="179" width="180" height="40" as="geometry" />
        </mxCell>
        <mxCell id="X74YcVB7wnx7yH2umN-W-64" value="报表导出和共享" style="rounded=0;whiteSpace=wrap;html=1;fillColor=#eeeeee;strokeColor=#36393d;" parent="1" vertex="1">
          <mxGeometry x="-1247" y="179" width="180" height="40" as="geometry" />
        </mxCell>
        <mxCell id="X74YcVB7wnx7yH2umN-W-65" value="权限控制和管理" style="rounded=0;whiteSpace=wrap;html=1;fillColor=#d5e8d4;strokeColor=#82b366;" parent="1" vertex="1">
          <mxGeometry x="-1047" y="179" width="180" height="40" as="geometry" />
        </mxCell>
        <mxCell id="-a8pm589WH-SlMhMmDhZ-5" value="本期" style="rounded=0;whiteSpace=wrap;html=1;fillColor=#d5e8d4;strokeColor=#82b366;" parent="1" vertex="1">
          <mxGeometry x="-1638" y="129" width="100" height="40" as="geometry" />
        </mxCell>
        <mxCell id="-a8pm589WH-SlMhMmDhZ-6" value="规划" style="rounded=0;whiteSpace=wrap;html=1;fillColor=#eeeeee;strokeColor=#36393d;" parent="1" vertex="1">
          <mxGeometry x="-1638" y="189" width="100" height="40" as="geometry" />
        </mxCell>
      </root>
    </mxGraphModel>
  </diagram>
</mxfile>
